<svg width="78" height="60" viewBox="0 0 78 60" fill="none" xmlns="http://www.w3.org/2000/svg">
<g clip-path="url(#clip0_95_275)">
<path opacity="0.3" d="M57.9486 1.31068L42.1248 37.1143C41.4814 38.5653 42.5465 40.1996 44.1413 40.1996H75.7943C77.3891 40.1996 78.4541 38.5653 77.8108 37.1143L61.9816 1.31068C61.2085 -0.436893 58.7217 -0.436893 57.9486 1.31068Z" fill="#73AA7B"/>
<path opacity="0.3" d="M15.6345 2.29774L0.243187 37.1144C-0.400146 38.5653 0.664867 40.1996 2.25968 40.1996H33.0423C34.6371 40.1996 35.7022 38.5653 35.0588 37.1144L19.6675 2.29774C18.8944 0.550167 16.4076 0.550167 15.6345 2.29774Z" fill="#73AA7B"/>
<path opacity="0.3" d="M37.443 12.6915L20.684 37.2114C19.819 38.479 20.7272 40.1996 22.268 40.1996H55.7861C57.3269 40.1996 58.2351 38.479 57.3701 37.2114L40.6111 12.6915C39.8488 11.5804 38.2053 11.5804 37.443 12.6915Z" fill="#136C91"/>
<path d="M19.2675 45.7606C19.2675 44.8113 19.8892 44.342 20.765 44.342C21.6408 44.342 22.3003 44.8167 22.3003 45.7606V52.7886C22.3003 58.1392 19.381 59.6333 16.3535 59.6333C13.8343 59.6333 12.0124 58.5761 11.1366 56.4294C10.1851 58.7973 8.29297 59.6333 5.95751 59.6333C2.96791 59.6333 0.0107422 58.177 0.0107422 52.7886V45.7606C0.0107422 44.8113 0.63245 44.342 1.50825 44.342C2.38404 44.342 3.03819 44.8167 3.03819 45.7606V52.9343C3.03819 56.0626 4.68166 57.0119 6.32513 57.0119C7.9686 57.0119 9.60667 56.068 9.60667 52.9343V45.7606C9.60667 44.8113 10.2662 44.342 11.142 44.342C12.0178 44.342 12.6395 44.8167 12.6395 45.7606V52.9343C12.6395 56.0626 14.3533 57.0119 15.9967 57.0119C17.6024 57.0119 19.2837 56.068 19.2837 52.9343V45.7606H19.2675Z" fill="black"/>
<path d="M38.9404 51.6235C38.9404 48.2363 37.2266 46.6721 34.4154 46.6721C31.6042 46.6721 29.8905 48.2363 29.8905 51.6235V58.1769C29.8905 59.1262 29.1985 59.6332 28.3605 59.6332C27.5226 59.6332 26.863 59.1586 26.863 58.1769V51.6235C26.863 46.343 29.8905 43.9806 34.4154 43.9806C38.9404 43.9806 41.9678 46.3484 41.9678 51.6235V58.1769C41.9678 59.1586 41.3083 59.6332 40.4703 59.6332C39.6324 59.6332 38.9404 59.1586 38.9404 58.1769V51.6235Z" fill="black"/>
<path d="M46.2441 52.0605C46.2441 47.0335 49.4932 43.9806 54.0885 43.9806C56.7861 43.9806 58.8297 44.9623 60.1109 46.602V37.6807C60.1109 36.7692 60.8408 36.2946 61.6463 36.2946C62.414 36.2946 63.1438 36.7692 63.1438 37.6807V51.9526C63.1059 56.4294 59.8568 60.0001 54.6777 60.0001C49.8555 60.0001 46.2441 57.0119 46.2441 52.0605ZM54.6723 46.4887C51.753 46.4887 49.3797 48.4898 49.3797 51.985C49.3797 55.4801 51.7152 57.4111 54.6345 57.4111C57.7376 57.4111 60.0731 55.1888 60.0731 51.985C60.0731 48.7487 57.7755 46.4887 54.6723 46.4887Z" fill="black"/>
<path d="M68.031 52.3894C68.031 46.5642 71.1342 43.9806 76.2754 43.9806C77.2972 43.9806 77.6973 44.7087 77.6973 45.4369C77.6973 46.2028 77.2972 46.931 76.2754 46.931C72.6966 46.931 71.0206 49.3366 71.0206 52.5351V58.2147C71.0206 59.164 70.4368 59.6332 69.5231 59.6332C68.6095 59.6332 68.0256 59.1586 68.0256 58.2147V52.3894H68.031Z" fill="black"/>
</g>
<defs>
<clipPath id="clip0_95_275">
<rect width="78" height="60" fill="white"/>
</clipPath>
</defs>
</svg>